<?xml version="1.0" encoding="iso-8859-1"?>
<!-- Generator: Adobe Illustrator 21.0.2, SVG Export Plug-In . SVG Version: 6.00 Build 0)  -->
<svg version="1.1" id="Camada_1" xmlns="http://www.w3.org/2000/svg" xmlns:xlink="http://www.w3.org/1999/xlink" x="0px" y="0px"
	 viewBox="0 0 360 65.109" style="enable-background:new 0 0 360 65.109;" xml:space="preserve">
<g>
	<defs>
		<rect id="SVGID_1_" y="0" width="360" height="65.109"/>
	</defs>
	<clipPath id="SVGID_2_">
		<use xlink:href="#SVGID_1_"  style="overflow:visible;"/>
	</clipPath>
	<path style="clip-path:url(#SVGID_2_);" d="M53.092,55.092h-6.017c-1.105,0-2-0.896-2-2V12.016c0-1.104,0.895-2,2-2h6.017
		c1.104,0,2,0.896,2,2v41.076C55.092,54.196,54.196,55.092,53.092,55.092"/>
	<path style="clip-path:url(#SVGID_2_);" d="M18.16,10.017H1.002C0.448,10.017,0,10.465,0,11.019V54.09
		c0,0.554,0.448,1.002,1.002,1.002h17.529c12.575,0,22.745-10.3,22.534-22.923C40.859,19.812,30.519,10.017,18.16,10.017
		 M18.531,45.959L18.531,45.959h-8.014c-0.276,0-0.501-0.225-0.501-0.501V19.651c0-0.276,0.225-0.501,0.501-0.501h8.014
		c6.993,0.473,12.521,6.291,12.521,13.405C31.052,39.667,25.524,45.486,18.531,45.959"/>
	<path style="clip-path:url(#SVGID_2_);" d="M98.378,45.985c-0.797-1.968-1.913-3.71-3.262-5.195
		c3.706-3.214,6.053-7.953,6.053-13.244c0-9.669-7.83-17.509-17.495-17.528v-0.001H61.102c-0.553,0-1.002,0.448-1.002,1.002V54.09
		c0,0.554,0.449,1.002,1.002,1.002h8.013c0.553,0,1.002-0.448,1.002-1.002v-8.514c0-0.276,0.224-0.501,0.501-0.501h11.943
		c2.806,0.165,5.409,1.897,6.533,4.671l1.912,4.72c0.154,0.379,0.521,0.626,0.928,0.626h10.133L98.378,45.985z M70.618,19.15h11.918
		c4.706,0,8.703,3.851,8.615,8.557c-0.086,4.563-3.811,8.235-8.395,8.235H70.618c-0.277,0-0.501-0.224-0.501-0.5V19.651
		C70.117,19.375,70.341,19.15,70.618,19.15"/>
	<path style="clip-path:url(#SVGID_2_);" d="M140.234,18.148v-7.13c0-0.553-0.449-1.002-1.002-1.002h-33.055
		c-0.553,0-1.002,0.449-1.002,1.002V54.09c0,0.553,0.449,1.002,1.002,1.002h33.055c0.553,0,1.002-0.449,1.002-1.002v-7.13
		c0-0.553-0.449-1.001-1.002-1.001h-23.539c-0.277,0-0.501-0.225-0.501-0.501v-7.836c0-0.277,0.224-0.501,0.501-0.501h18.531
		c0.553,0,1.001-0.449,1.001-1.002v-7.13c0-0.553-0.448-1.002-1.001-1.002h-18.531c-0.277,0-0.501-0.224-0.501-0.501V19.65
		c0-0.276,0.224-0.501,0.501-0.501h23.539C139.785,19.149,140.234,18.701,140.234,18.148"/>
	<path style="clip-path:url(#SVGID_2_);" d="M177.751,41.95c-0.41-0.24-0.935-0.162-1.248,0.195
		c-2.503,2.856-6.108,4.649-10.117,4.649c-7.56,0-13.689-6.375-13.689-14.239s6.129-14.24,13.689-14.24
		c4.009,0,7.614,1.794,10.117,4.65c0.313,0.357,0.838,0.434,1.248,0.194l7.792-4.564c-4.594-6.292-12.207-10.24-20.712-9.697
		c-11.705,0.748-21.214,10.147-22.083,21.844c-1.035,13.911,9.946,25.519,23.638,25.519c7.873,0,14.845-3.84,19.157-9.747
		L177.751,41.95z"/>
	<path style="clip-path:url(#SVGID_2_);" d="M224.374,10.017h-33.055c-0.553,0-1.002,0.449-1.002,1.002v7.13
		c0,0.553,0.449,1.001,1.002,1.001h11.018c0.277,0,0.501,0.225,0.501,0.501v34.44c0,0.553,0.449,1.002,1.002,1.002h8.013
		c0.553,0,1.002-0.449,1.002-1.002v-34.44c0-0.276,0.224-0.501,0.501-0.501h11.018c0.553,0,1.002-0.448,1.002-1.001v-7.13
		C225.376,10.466,224.927,10.017,224.374,10.017"/>
</g>
<g>
	<defs>
		<path id="SVGID_3_" d="M266.35,54.366l-12.315-43.073c-0.183-0.639,0.298-1.277,0.964-1.277h78.73c0.446,0,0.84,0.297,0.963,0.728
			l12.316,43.072c0.181,0.64-0.298,1.277-0.964,1.277h-78.731C266.866,55.093,266.473,54.796,266.35,54.366 M243.047,0
			c-1.331,0-2.292,1.274-1.926,2.554l17.466,61.102c0.246,0.86,1.032,1.453,1.927,1.453h97.482c1.331,0,2.291-1.273,1.926-2.553
			L342.455,1.453C342.21,0.593,341.423,0,340.529,0H243.047z"/>
	</defs>
	<clipPath id="SVGID_4_">
		<use xlink:href="#SVGID_3_"  style="overflow:visible;"/>
	</clipPath>
	
		<linearGradient id="SVGID_5_" gradientUnits="userSpaceOnUse" x1="0" y1="65.1087" x2="1" y2="65.1087" gradientTransform="matrix(118.9578 0 0 -118.9578 241.0422 7777.7407)">
		<stop  offset="0" style="stop-color:#E10E00"/>
		<stop  offset="0.6305" style="stop-color:#E10E00"/>
		<stop  offset="1" style="stop-color:#FFB800"/>
	</linearGradient>
	<rect x="240.755" y="0" style="clip-path:url(#SVGID_4_);fill:url(#SVGID_5_);" width="119.532" height="65.109"/>
</g>
</svg>
